<svg width="512" height="512" viewBox="0 0 512 512" fill="none" xmlns="http://www.w3.org/2000/svg">
  <rect width="512" height="512" fill="none"/>
  <path d="M83.5 167.6c58.8 43.7 111.8 48.4 172.5 63.8 60.7-15.4 113.7-20.1 172.5-63.8-1.7 37.7-12.1 76-47.1 101.8-41.7 30.7-90.4 32.8-125.4 90.8-35-58-83.7-60.1-125.4-90.8-35-25.8-45.4-64.1-47.1-101.8Z" fill="white"/>
  <path d="M95.7 280.8c20.5 22.6 40 41.6 76.5 48.2 19 3.5 37.6-1.7 49.6-17.6-5.8 26.8-29.5 44.9-57.6 49.2-52.8 7.9-92-12.8-128.8-56.3 15.7 9.9 34.6 14.6 60.3-23.5Z" fill="white"/>
  <path d="M416.3 280.8c-20.5 22.6-40 41.6-76.5 48.2-19 3.5-37.6-1.7-49.6-17.6 5.8 26.8 29.5 44.9 57.6 49.2 52.8 7.9 92-12.8 128.8-56.3-15.7 9.9-34.6 14.6-60.3-23.5Z" fill="white"/>
  <path d="M256 227.7c-15.7 43.5-47 62.8-56.6 120L256 394l56.6-46.3c-9.6-57.2-40.9-76.5-56.6-120Z" fill="white"/>
</svg>
